<svg id="Layer_1" data-name="Layer 1" xmlns="http://www.w3.org/2000/svg" viewBox="0 0 396 51"><defs><style>.cls-1{font-size:38.84px;fill:#001637;}.cls-1,.cls-4{font-family:BodoniMT, Bodoni MT;}.cls-2{letter-spacing:0.02em;}.cls-3{letter-spacing:0em;}.cls-4{font-size:32.52px;fill:#f2f2f2;}.cls-5{fill:#1e07b7;opacity:0.11;}</style></defs><title>Logo</title><text class="cls-1" transform="translate(5 37.14) scale(1.11 1)">Smed<tspan class="cls-2" x="89.82" y="0">e</tspan><tspan class="cls-3" x="107.14" y="0">gaard</tspan></text><text class="cls-4" transform="translate(244.48 36.9) scale(1.16 1)">designs.</text><path class="cls-5" d="M220.06,45.78a24.23,24.23,0,0,0,9.34-3.89,28.93,28.93,0,0,0,7.36-7.76A27.26,27.26,0,0,0,240.62,24a26.13,26.13,0,0,0,.23-5.79q.22-12.65,17.84-13.32c.43-.09-.91-.24-1.11-.19-4.32,1-8.15,2.2-11.82,4.78-2.55,1.8-5.57,4.11-6,7.43-.16,1.28-.06,2.58-.14,3.86a26.33,26.33,0,0,1-1.91,8.57,26.81,26.81,0,0,1-4.55,7.44,24.88,24.88,0,0,1-14.41,8.12C219,44.82,219.63,45.88,220.06,45.78Z"/><path class="cls-5" d="M220.11,46.73a31.91,31.91,0,0,0,4.94-1.46,23.71,23.71,0,0,0,6-3.64,27.23,27.23,0,0,0,10-21.85,24.18,24.18,0,0,1,0-3.07l1.45-3.21a24.74,24.74,0,0,1,4.67-3.68c3.6-2.46,7.6-3.4,11.79-4.21.25-.05-.26-.27-.39-.25a41.06,41.06,0,0,0-8.07,2.29,30.25,30.25,0,0,0-7.69,5.19c-1.93,1.68-2.19,3.34-2.21,5.9a29.48,29.48,0,0,1-2.45,12.67A27.48,27.48,0,0,1,233,38.76c-3.76,3.93-7.7,6-13.46,7.32C219.38,46.12,220,46.76,220.11,46.73Z"/><path class="cls-5" d="M219.39,45.2a28,28,0,0,0,6.38-2,25.9,25.9,0,0,0,5.71-4,27.05,27.05,0,0,0,8-13.68,25.11,25.11,0,0,0,.7-6.41,15.13,15.13,0,0,1,0-2,3.67,3.67,0,0,1,.75-2.58,3.33,3.33,0,0,1,1.37-2.19,21.17,21.17,0,0,1,2.3-1.93c4.11-3.29,8-4.66,13.4-5.85.38-.08-1.05-.1-.82-.1a8.6,8.6,0,0,0-2.38.13c-4.3,1.3-8.17,2.64-11.63,5.65a27.18,27.18,0,0,0-4.38,4.46,11,11,0,0,0-1.73,5.87,24.58,24.58,0,0,1-5.45,14.2,24.29,24.29,0,0,1-6,5.43,24.94,24.94,0,0,1-9,3.16s1.32,1,1.34,1C218.15,44.49,219.06,45.28,219.39,45.2Z"/><path class="cls-5" d="M219.45,45.67a27.9,27.9,0,0,0,6.36-2,25.37,25.37,0,0,0,5.71-4,27.15,27.15,0,0,0,8-13.74,25.76,25.76,0,0,0,.69-6.43,13.62,13.62,0,0,1,0-2,3.67,3.67,0,0,1,.76-2.59,3.38,3.38,0,0,1,1.36-2.2,19.37,19.37,0,0,1,2.31-1.93c4.12-3.3,8-4.68,13.45-5.83-.26.06-1.66-.42-2.27-.25a31.44,31.44,0,0,0-9.88,4.13,23.84,23.84,0,0,0-6.24,5.56c-1.49,2.11-1.47,4.42-1.68,6.91a25.84,25.84,0,0,1-11.58,19.46,24.77,24.77,0,0,1-9,3.26s1,.93,1,.92C218.51,45,219.19,45.73,219.45,45.67Z"/><path class="cls-5" d="M220.08,45.58A25.68,25.68,0,0,0,228,42.64a28.71,28.71,0,0,0,4.28-3.17,26.33,26.33,0,0,0,5.49-7.18,26.42,26.42,0,0,0,2.58-6.82,19.15,19.15,0,0,0,.7-5.49V15.9l.45-1.81,2.2-2.56c3.88-4,10-5.88,15.17-6.93.35-.07-.7-.15-.87-.11-4.29,1-3.05.5-6.17,1.7a28.66,28.66,0,0,0-9.1,5.69,7.23,7.23,0,0,0-2.62,4.63c-.06.58-.07,1.38-.09,2a33.54,33.54,0,0,1-.74,7.27,18.88,18.88,0,0,1-1.74,5l-9,10.56A24.82,24.82,0,0,1,219.27,45C219.14,45,219.87,45.63,220.08,45.58Z"/><path class="cls-5" d="M219.35,45a21.06,21.06,0,0,0,6.39-2l3-1.77a26,26,0,0,0,8.19-9.2,25.51,25.51,0,0,0,3.18-10.27,18.81,18.81,0,0,0,.11-3.9Q239.95,6,257.84,4.44c.56-.12,0-.12-.24-.13a7.43,7.43,0,0,0-2.2.24c-3.37,1-4.78,1.17-7.88,2.88a26.44,26.44,0,0,0-5.41,4.07c-2.62,2.42-4.16,4.39-4.41,8a32.4,32.4,0,0,1-.94,6.65,25.82,25.82,0,0,1-3.49,7.46,24.06,24.06,0,0,1-7.11,6.85,26.27,26.27,0,0,1-9.06,3.26l1.08.76C218.38,44.56,219.05,45.11,219.35,45Z"/><path class="cls-5" d="M219.61,46.05A30.83,30.83,0,0,0,226,44a23.77,23.77,0,0,0,6.92-5.31A26.34,26.34,0,0,0,240,24.45a45.28,45.28,0,0,0,.23-5.7l.08-2,1.43-3.2a23.19,23.19,0,0,1,6.49-4.93,32.16,32.16,0,0,1,10-3.43c-.25,0-1.73-.64-2.36-.46A31.18,31.18,0,0,0,246,8.88a24.37,24.37,0,0,0-6.24,5.56c-1.51,2.1-1.49,4.41-1.71,6.89a25.43,25.43,0,0,1-5.49,13.83,25.23,25.23,0,0,1-6.14,5.61,24.6,24.6,0,0,1-9,3.26s1.05,1.09,1,1.08S219.34,46.11,219.61,46.05Z"/><path class="cls-5" d="M219.78,45.22a21.36,21.36,0,0,0,6.43-2A26,26,0,0,0,232,39.11a28,28,0,0,0,6.34-8.81,25.86,25.86,0,0,0,2.09-7,50.39,50.39,0,0,0,.27-7.77q4.65-10.36,17.71-11.27c.67-.14-.28-.16-.5-.11a35.23,35.23,0,0,0-8.22,2.46C246.58,8.08,243.07,10.3,241,13a6.28,6.28,0,0,0-1.34,3.29c-.67,6.64,1.82,8.5-4.07,17.18A28.57,28.57,0,0,1,229.76,40a19.58,19.58,0,0,1-4.31,2.86,21.28,21.28,0,0,1-6.33,1.92C219,44.78,219.6,45.26,219.78,45.22Z"/><path class="cls-5" d="M219.51,45.57a27.9,27.9,0,0,0,6.38-2,25.3,25.3,0,0,0,5.69-4,27,27,0,0,0,8-13.7,25.56,25.56,0,0,0,.67-6.4,13.49,13.49,0,0,1,0-2,3.57,3.57,0,0,1,1.41-3.18,7.12,7.12,0,0,1,3-3.53,14,14,0,0,1,3.51-2.4,32.55,32.55,0,0,1,9.94-3.47c.39-.08-1.05-.2-.83-.18a7.72,7.72,0,0,0-2.44-.11,36.43,36.43,0,0,0-8.16,3.17,29,29,0,0,0-5.13,4.11c-2.47,2.39-4.13,4.31-4.44,7.86a32.83,32.83,0,0,1-1,6.47,25.71,25.71,0,0,1-3.49,7.3,23.75,23.75,0,0,1-7.06,6.7,26,26,0,0,1-9,3.15S218,44.52,218,44.53C218.17,44.66,219.19,45.65,219.51,45.57Z"/><path class="cls-5" d="M219.53,45.33a24,24,0,0,0,9.34-3.82,28.51,28.51,0,0,0,7.34-7.71,26.89,26.89,0,0,0,3.87-10.1,27,27,0,0,0,.25-5.75q.28-12.6,17.78-13.41c.21,0,.21-.12,0-.14a4.43,4.43,0,0,0-1.36.06c-4.37,1.1-8.28,2.37-12,5.11-2.54,1.91-5.3,4.23-5.85,7.53a30.86,30.86,0,0,0-.18,3.73,23.92,23.92,0,0,1-2.54,9.94A26.39,26.39,0,0,1,230,38.88l-2.7,2.06a21.13,21.13,0,0,1-9.11,3.46C218.38,44.35,219.08,45.44,219.53,45.33Z"/><path class="cls-5" d="M220,45.19a21.16,21.16,0,0,0,6.43-2.08A26,26,0,0,0,232.19,39a27.74,27.74,0,0,0,7.6-12.18,25.05,25.05,0,0,0,1.09-7.29,10.64,10.64,0,0,0-.06-2.11q-.48-12,17.77-13.27c.66-.14-.28-.15-.49-.1a34.19,34.19,0,0,0-8.23,2.44c-3.07,1.45-6.6,3.67-8.62,6.41a6.22,6.22,0,0,0-1.33,3.29c-.59,5.93-.67,12.15-4.06,17.24A27.94,27.94,0,0,1,230,39.92a18.94,18.94,0,0,1-4.27,2.85,21.63,21.63,0,0,1-6.36,2C219.26,44.82,219.85,45.23,220,45.19Z"/><path class="cls-5" d="M219.4,45.77a31,31,0,0,0,6.38-2,23.93,23.93,0,0,0,6.91-5.29,26.22,26.22,0,0,0,7.12-14.18,44.74,44.74,0,0,0,.24-5.67l.08-2,1.43-3.19A23.26,23.26,0,0,1,248,8.5,32.33,32.33,0,0,1,258,5c.34-.08-.86-.25-.68-.22a5.77,5.77,0,0,0-2-.19c-4.31,1.26-8.18,2.56-11.67,5.53a27.52,27.52,0,0,0-4.43,4.4,10.58,10.58,0,0,0-1.7,5.89,25.33,25.33,0,0,1-11.5,20,25,25,0,0,1-9,3.22l1.14,1.13C218.27,44.88,219.13,45.83,219.4,45.77Z"/></svg>