<svg id="Layer_1" data-name="Layer 1" xmlns="http://www.w3.org/2000/svg" viewBox="0 0 120 89"><defs><style>.cls-1{fill:#22b573;opacity:0.11;}</style></defs><title>Tilbage</title><path class="cls-1" d="M52.36,7.92Q43,15.75,33.07,22.74,23.24,30.06,12.82,36.5C9,38.59,6,40.2,1.12,39.32c0,0-.63,0-.36.26,8.44,8,16.89,15.89,25,24.16,7.58,7.72,14.69,15.73,21.74,23.95.4.46,1-1.34.77-1.62-7-7.93-14.11-15.69-21.56-23.2s-15.25-15-22.89-22.53l-.36.25a14.94,14.94,0,0,0,7.72-1.15c1.65-.74,3.21-1.63,4.78-2.52Q26.4,30.43,36.22,23.07q9.83-7,19.09-14.61c.44-.34-.69-.46-.72-.47C54.15,7.91,52.77,7.59,52.36,7.92Z"/><path class="cls-1" d="M50.74,10.07A165.09,165.09,0,0,1,32,24.93q-9.84,7.29-20.27,13.73c-3.68,2-6.66,3.52-11.31,2.56-.13,0-1.28-.1-.75.39,8.71,8.08,17.42,16.14,25.74,24.63C33.05,74,40.16,82.1,47.21,90.39c.38.45.9-.71.68-1C40.78,81.31,33.56,73.35,26,65.69,17.7,57.36,9.17,49.33.62,41.29l-.75.39c2,.47,3.56.88,5.68.42A27.42,27.42,0,0,0,12.87,39l13.65-9a184.44,184.44,0,0,0,25-19.62C52,10.05,51,9.84,50.74,10.07Z"/><path class="cls-1" d="M53.57,7.55q-9.42,7.8-19.43,14.81Q24.3,29.67,13.88,36.14C10.05,38.3,6.94,40,2,39.19c-.38,0-.41,0-.09.25C10.48,47,19.15,54.35,27.41,62.2a100.57,100.57,0,0,1,8.84,8.92A162.54,162.54,0,0,1,48.23,85c.16.2,2.17-3.66,2.12-3.56.14-.27,2-3.28,1.61-3.81A90.8,90.8,0,0,0,39.05,62.42l-8-6a47.65,47.65,0,0,1-17-14,5.41,5.41,0,0,0,1.6-.5,35.47,35.47,0,0,0,7.45-3.77c14-9,27.39-19,40.74-29a1.75,1.75,0,0,0-1-.39c-1.35-.26-2.7-.5-4.06-.71S56,7.68,54.68,7.51A1.69,1.69,0,0,0,53.57,7.55Z"/><path class="cls-1" d="M52.62,8.51q-9.4,7.8-19.4,14.81a260,260,0,0,1-22.38,15L8.43,39.4a12.64,12.64,0,0,1-4.88,1l2,.19L1.8,40.11c-.1,0-1.19-.24-.71.19,8.52,7.5,17.09,14.92,25.14,22.93,7.51,7.46,14.33,15.36,21.13,23.48.17.21,1.57-3,1.53-2.89.13-.31,1.41-2.62,1-3.11a221.56,221.56,0,0,0-14.65-17A122.6,122.6,0,0,0,18.18,49.43l-7-7.47a23.09,23.09,0,0,0,5.09-1.83c.9-.45,1.8-1,2.67-1.46q8.19-5,16-10.62,13.16-9.3,25.93-19.12A1.12,1.12,0,0,0,60,8.66c-1.08-.1-2.16-.18-3.25-.22C56,8.4,53.4,7.9,52.62,8.51Z"/><path class="cls-1" d="M51.82,7Q42.6,14.92,32.66,21.86q-9.81,7.32-20.24,13.76C8.65,37.69,5.58,39.33.76,38.37c-.43-.09-.39.2-.17.41C9,47,17.57,55,25.81,63.31c7.6,7.71,14.7,15.74,21.71,24,.37.42.93-.48.72-.73-8.49-9.81-17.1-19.36-26.32-28.5C13.46,49.71,11.23,47.76,3,39.37l-.34.25a13.74,13.74,0,0,0,7.51-1,53,53,0,0,0,4.73-2.46q10.43-6.48,20.24-13.84Q44.91,15.44,54,7.68C54.43,7.35,52.2,6.74,51.82,7Z"/><path class="cls-1" d="M53.13,6.93Q40.49,17.24,27.06,26.52a113.57,113.57,0,0,1-14.81,9.65,30.29,30.29,0,0,1-3.62,1.77,9.79,9.79,0,0,1-7.12.55c-.34-.05-.38,0-.1.24C10,46.35,18.7,53.86,27,61.8a114.9,114.9,0,0,1,8.92,9A167.81,167.81,0,0,1,48,84.69c.21.24,1.9-2.71,1.85-2.63.13-.22,1.72-2.46,1.36-2.92A105.77,105.77,0,0,0,37.47,63.42l-8.29-6.66A54.19,54.19,0,0,1,12.53,42a5.52,5.52,0,0,0,1.57-.45,32.35,32.35,0,0,0,7.42-3.64c14.1-8.88,27.38-19,40.68-29a1.42,1.42,0,0,0-.9-.43Q59.53,8,57.73,7.65C57.15,7.52,53.85,6.38,53.13,6.93Z"/><path class="cls-1" d="M53,9.45q-9.33,7.71-19.22,14.66Q23.92,31.42,13.5,37.89a23.9,23.9,0,0,1-9.59,3.47l5.17.29-7-.67c-.18,0-1-.11-.62.25,8.47,7.45,17,14.85,24.9,22.87,7.49,7.56,14.34,15.54,21.16,23.71a24.08,24.08,0,0,0,1.38-3.27c.12-.39,1.28-2.92.84-3.46-7.19-8.65-14.35-17.39-22.94-24.72A57.66,57.66,0,0,1,14.34,45.83q-6.88-3.88-.95-4.37a41,41,0,0,0,7.37-3.85C34.59,28.94,47.57,18.94,60.57,9.1a1,1,0,0,0-.81-.18c-1,0-2,0-3,.07S53.76,8.81,53,9.45Z"/><path class="cls-1" d="M51.58,6.11Q39.07,16.42,25.75,25.62A107.26,107.26,0,0,1,11,35.23,28.08,28.08,0,0,1,7.39,37a10.47,10.47,0,0,1-7.24.46c-.19,0-.23.09-.11.24,8.43,7.94,16.8,15.92,24.85,24.25,7.6,7.86,14.76,16,21.84,24.34.27.32,1-.43.72-.75-8.42-9.87-17-19.51-26-28.86a69.29,69.29,0,0,1-11.83-13q-6.18-4.45-.59-4.45a34,34,0,0,0,7.16-3.53l13.61-9.06Q43.07,17.32,55.73,7.2c.22-.17-2.1-.84-2-.82C53.28,6.27,52,5.74,51.58,6.11Z"/><path class="cls-1" d="M53.77,8.48q-9.44,7.79-19.44,14.81-9.84,7.32-20.25,13.79l-2.34,1.31a12.64,12.64,0,0,1-9.45,1.76c-.36,0-.38.08-.07.25C10.69,47.83,19.29,55.1,27.37,63A284.23,284.23,0,0,1,48.14,86a43.2,43.2,0,0,0,2-4.07c.14-.36,1.88-3.67,1.41-4.28a135.47,135.47,0,0,0-13-15.83,91.76,91.76,0,0,0-16.88-12l-7.51-7.4a26.37,26.37,0,0,0,2.59-.89,36.6,36.6,0,0,0,5.26-2.67q8.11-5.17,16-10.72,13.17-9.3,26-19.1a1.67,1.67,0,0,0-1-.29c-1.33-.12-2.66-.22-4-.3s-2.67-.15-4-.18A1.58,1.58,0,0,0,53.77,8.48Z"/><path class="cls-1" d="M52.06,7.17l-12.72,10A191.67,191.67,0,0,1,17,32.42c-6.48,4-9.18,7.42-16.39,6.2-.26,0-.29.08-.1.25C9,46.52,17.59,54.14,25.65,62.29,33.16,69.89,40.11,77.85,47,86c0,0,2.15-2.58,1.63-3.2A318.3,318.3,0,0,0,24.79,56.74,77.08,77.08,0,0,1,9.25,41.09,14.49,14.49,0,0,0,13,39.94a35.53,35.53,0,0,0,5-2.62c14.23-8.62,27.41-18.94,40.62-29,.09-.07-3.32-.86-3.26-.85C54.85,7.37,52.68,6.68,52.06,7.17Z"/><path class="cls-1" d="M51.75,5.7Q39.22,16.05,25.85,25.29A108,108,0,0,1,11.08,34.9a27.83,27.83,0,0,1-3.56,1.73,10,10,0,0,1-6.84.5c.09,0-.77-.15-.44.18q10.25,9.86,20.35,19.84A376.72,376.72,0,0,1,47.17,86.06c.26.31.8-.32.54-.63C42.17,79,36.64,72.59,30.82,66.36q-9.36-9.76-19-19.25l-5.87-8,1.17-.21a22.73,22.73,0,0,0,7.13-3C28.55,27.55,41.62,17,54.62,6.82,55,6.49,52.18,5.36,51.75,5.7Z"/><path class="cls-1" d="M53,9,40.2,19A199,199,0,0,1,17.89,34.24C11.68,38.11,10,40.27,4,41l2.22.14L2.3,40.64a1.32,1.32,0,0,0-1,0C9.87,48.15,18.51,55.54,26.6,63.55c7.49,7.4,14.24,15.28,21,23.38a29.34,29.34,0,0,0,1.86-3.72c.14-.33,1.79-3.39,1.34-3.94a184.91,184.91,0,0,0-14-16.5L29,55.94A61.83,61.83,0,0,1,12.58,42.32a19.65,19.65,0,0,0,3.85-1.38,39.48,39.48,0,0,0,5.15-2.8C35.75,29.22,49.08,19.08,62.43,9a1.38,1.38,0,0,0-1-.22c-1.24-.06-2.48-.08-3.71-.08C56.82,8.71,53.93,8.27,53,9Z"/><path class="cls-1" d="M17.18,47.78c16.38-2.46,32.73-4.73,49.29-5.73L83,41.24q16.53-.54,33.06,0c.7,0-.82-1.06-.68-1-.61-.46-1.91-1.71-2.73-1.72-16.62-.21-33.18-.25-49.78,1-16.44,1.22-32.75,3.33-49.08,5.61-.65.09.71,1,.68.94C15,46.48,16.48,47.88,17.18,47.78Z"/><path class="cls-1" d="M17.72,50.72Q30,48.46,42.33,47.2q12.33-1.56,24.75-2.3l16.51-.79q16.5-.53,33,0c.47,0-1-2-1.57-2-16.53-.25-33-.33-49.52.86L49,44.4Q32.5,45.93,16.19,48.93C15.64,49,17.26,50.8,17.72,50.72Z"/><path class="cls-1" d="M15.38,46.07c16.4-2.4,32.8-4.66,49.36-5.68s33.05-1.13,49.64-.88a1.58,1.58,0,0,0-.75-.76c-1.07-.77-2.15-1.51-3.25-2.23s-2.19-1.45-3.31-2.14a1.59,1.59,0,0,0-1-.39c-16.7-.06-33.35,0-50,1.39C39.63,36.7,23.28,38.73,6.93,40.77a1.52,1.52,0,0,0,.76.74c1.09.74,2.2,1.46,3.31,2.15s2.24,1.39,3.37,2A1.56,1.56,0,0,0,15.38,46.07Z"/><path class="cls-1" d="M15.57,47.46C32,45.05,48.33,42.78,64.88,41.78s33.05-1.1,49.63-.83a1.14,1.14,0,0,0-.51-.71c-.79-.69-1.61-1.37-2.43-2-.66-.52-2.29-2.29-3.3-2.29C91.6,35.81,75,35.87,58.35,37.17,42,38.46,25.7,40.5,9.4,42.57a1.1,1.1,0,0,0,.51.69q1.18,1,2.4,2C12.81,45.63,14.7,47.59,15.57,47.46Z"/><path class="cls-1" d="M17.67,47.29C34,44.82,50.36,42.54,66.89,41.55l16.53-.8q16.53-.53,33.05,0c.6,0-.55-.81-.44-.73a4.44,4.44,0,0,0-2-1c-16.61-.25-33.15-.32-49.73.89s-32.71,3.3-49,5.67c-.55.08.46.73.44.72C16.13,46.6,17.13,47.37,17.67,47.29Z"/><path class="cls-1" d="M15.28,45.58A542.76,542.76,0,0,1,81,39.1q16.53-.57,33.08-.05c.94,0-1.67-1.5-1.42-1.34-1-.65-2.08-1.29-3.13-1.91a8.65,8.65,0,0,0-1.71-.88c-16.78-.11-33.45.06-50.2,1.3-16.46,1.22-32.81,3.35-49.17,5.45a1.08,1.08,0,0,0,.61.61c.88.55,1.77,1.09,2.69,1.59C12.44,44.29,14.28,45.73,15.28,45.58Z"/><path class="cls-1" d="M16.05,48.59c16.39-2.42,32.76-4.68,49.32-5.68S98.42,41.82,115,42.1a1.3,1.3,0,0,0-.56-.8c-.86-.83-1.74-1.64-2.63-2.43-.61-.54-2.53-2.8-3.58-2.81C91.56,36,75,36,58.32,37.33,42,38.61,25.69,40.65,9.41,42.7a1.3,1.3,0,0,0,.55.79q1.26,1.21,2.58,2.37C13,46.25,15.17,48.72,16.05,48.59Z"/><path class="cls-1" d="M16.86,46.22C33.21,43.71,49.5,41.44,66,40.45l16.54-.8q16.52-.51,33.05.05c.52,0-.4-.69-.33-.64a3.4,3.4,0,0,0-1.58-.72C97.1,38.08,80.55,38,64,39.2L47.41,40.58Q31.15,42.23,15,45c-.48.07.32.62.32.61A2.72,2.72,0,0,0,16.86,46.22Z"/><path class="cls-1" d="M15.75,47.17c16.4-2.41,32.79-4.68,49.36-5.69s33.06-1.1,49.65-.84a1.85,1.85,0,0,0-.78-.88q-1.68-1.4-3.41-2.7t-3.49-2.61a1.89,1.89,0,0,0-1-.53c-16.71-.06-33.36,0-50,1.39-16.4,1.32-32.72,3.34-49,5.36a1.78,1.78,0,0,0,.79.86c1.13.9,2.27,1.77,3.44,2.62s2.32,1.7,3.51,2.52A1.84,1.84,0,0,0,15.75,47.17Z"/><path class="cls-1" d="M15.69,46.52c16.37-2.45,32.7-4.72,49.23-5.72s33-1.1,49.61-.83c.74,0-1-1.13-.8-1-.68-.5-2.14-1.86-3-1.87-16.64-.18-33.22-.18-49.83,1.08-16.42,1.25-32.71,3.33-49,5.56-.69.1.86,1,.8,1,.65.44,1.3.86,2,1.26A3.7,3.7,0,0,0,15.69,46.52Z"/><path class="cls-1" d="M17.58,46.12Q29.7,43.87,42,42.62a443.75,443.75,0,0,1,74.19-3c1,0-.91-1.21-1.3-1.22-13.54-.22-19.86-.45-33.4,0q-16.62.55-33.17,2.2Q32,42.11,15.88,45c-.47.07.3.59.29.58A2.41,2.41,0,0,0,17.58,46.12Z"/><path class="cls-1" d="M15.42,47.75c16.41-2.39,32.81-4.66,49.38-5.66s33.06-1.1,49.65-.83a1.46,1.46,0,0,0-.63-.84c-.93-.88-1.89-1.75-2.86-2.59S109,36.15,108,35.34a1.48,1.48,0,0,0-.92-.5c-16.68-.09-33.32,0-50,1.32-16.39,1.31-32.7,3.33-49,5.39a1.45,1.45,0,0,0,.62.82c.94.86,1.89,1.69,2.86,2.5C12.07,45.28,14.48,47.89,15.42,47.75Z"/></svg>
